<svg id="visual" viewBox="0 0 900 600" width="900" height="600" xmlns="http://www.w3.org/2000/svg" xmlns:xlink="http://www.w3.org/1999/xlink" version="1.1"><rect x="0" y="0" width="900" height="600" fill="#f3d9b0"></rect><path d="M0 432L21.5 428.3C43 424.7 86 417.3 128.8 410.7C171.7 404 214.3 398 257.2 389.2C300 380.3 343 368.7 385.8 363.5C428.7 358.3 471.3 359.7 514.2 373C557 386.3 600 411.7 642.8 424.3C685.7 437 728.3 437 771.2 431.8C814 426.7 857 416.3 878.5 411.2L900 406L900 601L878.5 601C857 601 814 601 771.2 601C728.3 601 685.7 601 642.8 601C600 601 557 601 514.2 601C471.3 601 428.7 601 385.8 601C343 601 300 601 257.2 601C214.3 601 171.7 601 128.8 601C86 601 43 601 21.5 601L0 601Z" fill="#ffba4d"></path><path d="M0 437L21.5 439.7C43 442.3 86 447.7 128.8 448C171.7 448.3 214.3 443.7 257.2 437.8C300 432 343 425 385.8 425.3C428.7 425.7 471.3 433.3 514.2 438.7C557 444 600 447 642.8 445.2C685.7 443.3 728.3 436.7 771.2 429.7C814 422.7 857 415.3 878.5 411.7L900 408L900 601L878.5 601C857 601 814 601 771.2 601C728.3 601 685.7 601 642.8 601C600 601 557 601 514.2 601C471.3 601 428.7 601 385.8 601C343 601 300 601 257.2 601C214.3 601 171.7 601 128.8 601C86 601 43 601 21.5 601L0 601Z" fill="#fec366"></path><path d="M0 440L21.5 445.5C43 451 86 462 128.8 471.3C171.7 480.7 214.3 488.3 257.2 489.2C300 490 343 484 385.8 476C428.7 468 471.3 458 514.2 461C557 464 600 480 642.8 485C685.7 490 728.3 484 771.2 476.8C814 469.7 857 461.3 878.5 457.2L900 453L900 601L878.5 601C857 601 814 601 771.2 601C728.3 601 685.7 601 642.8 601C600 601 557 601 514.2 601C471.3 601 428.7 601 385.8 601C343 601 300 601 257.2 601C214.3 601 171.7 601 128.8 601C86 601 43 601 21.5 601L0 601Z" fill="#fdcc7e"></path><path d="M0 511L21.5 510.5C43 510 86 509 128.8 512.7C171.7 516.3 214.3 524.7 257.2 524.8C300 525 343 517 385.8 517.3C428.7 517.7 471.3 526.3 514.2 525.3C557 524.3 600 513.7 642.8 508.8C685.7 504 728.3 505 771.2 508.2C814 511.3 857 516.7 878.5 519.3L900 522L900 601L878.5 601C857 601 814 601 771.2 601C728.3 601 685.7 601 642.8 601C600 601 557 601 514.2 601C471.3 601 428.7 601 385.8 601C343 601 300 601 257.2 601C214.3 601 171.7 601 128.8 601C86 601 43 601 21.5 601L0 601Z" fill="#fcd595"></path><path d="M0 556L21.5 552.5C43 549 86 542 128.8 540.3C171.7 538.7 214.3 542.3 257.2 545.2C300 548 343 550 385.8 552.7C428.7 555.3 471.3 558.7 514.2 555.3C557 552 600 542 642.8 537.7C685.7 533.3 728.3 534.7 771.2 541.5C814 548.3 857 560.7 878.5 566.8L900 573L900 601L878.5 601C857 601 814 601 771.2 601C728.3 601 685.7 601 642.8 601C600 601 557 601 514.2 601C471.3 601 428.7 601 385.8 601C343 601 300 601 257.2 601C214.3 601 171.7 601 128.8 601C86 601 43 601 21.5 601L0 601Z" fill="#faddad"></path></svg>