<svg id="visual" viewBox="0 0 900 600" width="900" height="600" xmlns="http://www.w3.org/2000/svg" xmlns:xlink="http://www.w3.org/1999/xlink" version="1.1"><path d="M0 85L13.7 80C27.3 75 54.7 65 82 68C109.3 71 136.7 87 163.8 90C191 93 218 83 245.2 75C272.3 67 299.7 61 327 65C354.3 69 381.7 83 409 81C436.3 79 463.7 61 491 65C518.3 69 545.7 95 573 100C600.3 105 627.7 89 654.8 83C682 77 709 81 736.2 82C763.3 83 790.7 81 818 79C845.3 77 872.7 75 886.3 74L900 73L900 0L886.3 0C872.7 0 845.3 0 818 0C790.7 0 763.3 0 736.2 0C709 0 682 0 654.8 0C627.7 0 600.3 0 573 0C545.7 0 518.3 0 491 0C463.7 0 436.3 0 409 0C381.7 0 354.3 0 327 0C299.7 0 272.3 0 245.2 0C218 0 191 0 163.8 0C136.7 0 109.3 0 82 0C54.7 0 27.3 0 13.7 0L0 0Z" fill="#e5b161"></path><path d="M0 145L13.7 144C27.3 143 54.7 141 82 142C109.3 143 136.7 147 163.8 149C191 151 218 151 245.2 143C272.3 135 299.7 119 327 122C354.3 125 381.7 147 409 153C436.3 159 463.7 149 491 156C518.3 163 545.7 187 573 181C600.3 175 627.7 139 654.8 132C682 125 709 147 736.2 156C763.3 165 790.7 161 818 160C845.3 159 872.7 161 886.3 162L900 163L900 71L886.3 72C872.7 73 845.3 75 818 77C790.7 79 763.3 81 736.2 80C709 79 682 75 654.8 81C627.7 87 600.3 103 573 98C545.7 93 518.3 67 491 63C463.7 59 436.3 77 409 79C381.7 81 354.3 67 327 63C299.7 59 272.3 65 245.2 73C218 81 191 91 163.8 88C136.7 85 109.3 69 82 66C54.7 63 27.3 73 13.7 78L0 83Z" fill="#ebba6c"></path><path d="M0 199L13.7 199C27.3 199 54.7 199 82 200C109.3 201 136.7 203 163.8 199C191 195 218 185 245.2 174C272.3 163 299.7 151 327 159C354.3 167 381.7 195 409 199C436.3 203 463.7 183 491 190C518.3 197 545.7 231 573 230C600.3 229 627.7 193 654.8 186C682 179 709 201 736.2 204C763.3 207 790.7 191 818 185C845.3 179 872.7 183 886.3 185L900 187L900 161L886.3 160C872.7 159 845.3 157 818 158C790.7 159 763.3 163 736.2 154C709 145 682 123 654.8 130C627.7 137 600.3 173 573 179C545.7 185 518.3 161 491 154C463.7 147 436.3 157 409 151C381.7 145 354.3 123 327 120C299.7 117 272.3 133 245.2 141C218 149 191 149 163.8 147C136.7 145 109.3 141 82 140C54.7 139 27.3 141 13.7 142L0 143Z" fill="#f1c278"></path><path d="M0 367L13.7 357C27.3 347 54.7 327 82 320C109.3 313 136.7 319 163.8 317C191 315 218 305 245.2 292C272.3 279 299.7 263 327 262C354.3 261 381.7 275 409 284C436.3 293 463.7 297 491 317C518.3 337 545.7 373 573 380C600.3 387 627.7 365 654.8 356C682 347 709 351 736.2 344C763.3 337 790.7 319 818 313C845.3 307 872.7 313 886.3 316L900 319L900 185L886.3 183C872.7 181 845.3 177 818 183C790.7 189 763.3 205 736.2 202C709 199 682 177 654.8 184C627.7 191 600.3 227 573 228C545.7 229 518.3 195 491 188C463.7 181 436.3 201 409 197C381.7 193 354.3 165 327 157C299.7 149 272.3 161 245.2 172C218 183 191 193 163.8 197C136.7 201 109.3 199 82 198C54.7 197 27.3 197 13.7 197L0 197Z" fill="#f7cb83"></path><path d="M0 421L13.7 414C27.3 407 54.7 393 82 389C109.3 385 136.7 391 163.8 384C191 377 218 357 245.2 344C272.3 331 299.7 325 327 328C354.3 331 381.7 343 409 347C436.3 351 463.7 347 491 360C518.3 373 545.7 403 573 411C600.3 419 627.7 405 654.8 404C682 403 709 415 736.2 407C763.3 399 790.7 371 818 360C845.3 349 872.7 355 886.3 358L900 361L900 317L886.3 314C872.7 311 845.3 305 818 311C790.7 317 763.3 335 736.2 342C709 349 682 345 654.8 354C627.7 363 600.3 385 573 378C545.7 371 518.3 335 491 315C463.7 295 436.3 291 409 282C381.7 273 354.3 259 327 260C299.7 261 272.3 277 245.2 290C218 303 191 313 163.8 315C136.7 317 109.3 311 82 318C54.7 325 27.3 345 13.7 355L0 365Z" fill="#fbd18e"></path><path d="M0 511L13.7 517C27.3 523 54.7 535 82 534C109.3 533 136.7 519 163.8 518C191 517 218 529 245.2 530C272.3 531 299.7 521 327 514C354.3 507 381.7 503 409 506C436.3 509 463.7 519 491 522C518.3 525 545.7 521 573 517C600.3 513 627.7 509 654.8 509C682 509 709 513 736.2 514C763.3 515 790.7 513 818 514C845.3 515 872.7 519 886.3 521L900 523L900 359L886.3 356C872.7 353 845.3 347 818 358C790.7 369 763.3 397 736.2 405C709 413 682 401 654.8 402C627.7 403 600.3 417 573 409C545.7 401 518.3 371 491 358C463.7 345 436.3 349 409 345C381.7 341 354.3 329 327 326C299.7 323 272.3 329 245.2 342C218 355 191 375 163.8 382C136.7 389 109.3 383 82 387C54.7 391 27.3 405 13.7 412L0 419Z" fill="#fcd599"></path><path d="M0 553L13.7 557C27.3 561 54.7 569 82 568C109.3 567 136.7 557 163.8 554C191 551 218 555 245.2 554C272.3 553 299.7 547 327 545C354.3 543 381.7 545 409 546C436.3 547 463.7 547 491 548C518.3 549 545.7 551 573 551C600.3 551 627.7 549 654.8 548C682 547 709 547 736.2 550C763.3 553 790.7 559 818 558C845.3 557 872.7 549 886.3 545L900 541L900 521L886.3 519C872.7 517 845.3 513 818 512C790.7 511 763.3 513 736.2 512C709 511 682 507 654.8 507C627.7 507 600.3 511 573 515C545.7 519 518.3 523 491 520C463.7 517 436.3 507 409 504C381.7 501 354.3 505 327 512C299.7 519 272.3 529 245.2 528C218 527 191 515 163.8 516C136.7 517 109.3 531 82 532C54.7 533 27.3 521 13.7 515L0 509Z" fill="#fddaa3"></path><path d="M0 601L13.7 601C27.3 601 54.7 601 82 601C109.3 601 136.7 601 163.8 601C191 601 218 601 245.2 601C272.3 601 299.7 601 327 601C354.3 601 381.7 601 409 601C436.3 601 463.7 601 491 601C518.3 601 545.7 601 573 601C600.3 601 627.7 601 654.8 601C682 601 709 601 736.2 601C763.3 601 790.7 601 818 601C845.3 601 872.7 601 886.3 601L900 601L900 539L886.3 543C872.7 547 845.3 555 818 556C790.7 557 763.3 551 736.2 548C709 545 682 545 654.8 546C627.7 547 600.3 549 573 549C545.7 549 518.3 547 491 546C463.7 545 436.3 545 409 544C381.7 543 354.3 541 327 543C299.7 545 272.3 551 245.2 552C218 553 191 549 163.8 552C136.7 555 109.3 565 82 566C54.7 567 27.3 559 13.7 555L0 551Z" fill="#fedeae"></path></svg>